<svg width="1920" height="1080" viewBox="0 0 1920 1080" fill="none" xmlns="http://www.w3.org/2000/svg">
<g clip-path="url(#clip0_311_286)">
<rect width="1920" height="1080" fill="white"/>
<path d="M2041.53 324.697C1929.33 370.275 1797.82 377.791 1691.6 405.359C1609.2 426.817 1555.76 480.504 1482.56 527.269C1470.62 534.992 1458.42 541.901 1445.99 548.025C1437.69 552.12 1429.29 555.885 1420.81 559.319C1410.17 563.608 1399.42 567.456 1388.55 570.807C1384.18 572.131 1379.82 573.385 1375.41 574.613C1371.04 575.826 1366.61 576.93 1362.17 577.992C1213.38 613.696 1044.51 573.096 903.308 550.507C777.37 531.448 648.359 623.418 513.209 587.425C426.796 562.794 363.275 500.032 281.372 487.207C222.265 476.864 168.3 497.992 95.8023 502.487C88.3691 502.887 81.1704 503.039 74.1923 502.943C67.2142 502.86 60.4988 502.515 53.9344 501.949C47.3424 501.384 40.9988 500.612 34.7929 499.646C32.6967 499.329 30.6413 498.998 28.614 498.64C24.5458 497.909 20.5465 497.109 16.6023 496.226C-22.9083 487.511 -56.7097 471.458 -94 455.667C-64.3085 441.022 -38.8088 426.873 -16.2747 412.875C0.729346 402.325 16.0916 391.789 30.2409 381.211C41.4666 372.827 51.9893 364.359 62.0015 355.739C69.6553 349.161 77.0477 342.556 84.2741 335.798C91.666 328.861 98.9197 321.842 106.118 314.643C113.814 306.976 121.426 299.142 129.176 291.074C129.259 291.033 129.286 290.964 129.355 290.923C133.038 287.075 136.789 283.187 140.54 279.215C146.787 272.637 153.145 266.293 159.503 260.17C170.052 249.923 180.685 240.297 191.221 231.043C191.759 230.561 192.297 230.105 192.835 229.622L192.863 229.581C198.586 224.589 204.267 219.707 209.894 214.95C212.68 212.55 215.507 210.192 218.266 207.82C232.18 196.029 245.681 184.734 258.354 173.467C261.292 170.902 264.147 168.35 266.96 165.771C269.773 163.179 272.518 160.627 275.221 158.048C276.683 156.683 278.144 155.304 279.551 153.898C280.985 152.519 282.392 151.112 283.785 149.719C284.778 148.74 285.771 147.747 286.722 146.74C287.495 145.941 288.35 145.127 289.136 144.285C293.494 139.762 297.644 135.211 301.616 130.577C303.437 128.426 305.23 126.288 306.982 124.095C308.057 122.758 309.105 121.407 310.153 120.055C311.132 118.8 312.07 117.559 312.967 116.304C314.47 114.318 315.89 112.304 317.228 110.305C318.262 108.801 319.31 107.271 320.289 105.699C320.606 105.23 320.909 104.761 321.226 104.251C321.847 103.313 322.426 102.375 323.005 101.382C324.674 98.5691 326.177 96.0313 327.487 93.5766C329.349 90.1289 331.087 86.6814 332.714 83.1096C333.997 80.1997 335.239 77.1381 336.577 73.6628C337.28 71.8562 337.927 70.0086 338.562 68.1606C369.66 73.5942 397.503 80.1034 441.882 66.092C479.434 54.2319 515.856 30.9664 548.568 23.1884C607.51 9.24591 654.04 36.6762 708.583 43.9991C709.493 44.137 710.403 44.2608 711.313 44.3574C712.237 44.4815 713.147 44.578 714.058 44.6745C715.533 44.7986 717.009 44.9369 718.526 45.061C721.105 45.2817 723.67 45.4194 726.235 45.5297C728.359 45.6263 730.468 45.6812 732.578 45.6536C733.792 45.7364 735.005 45.7367 736.205 45.6954C738.08 45.6954 739.929 45.6536 741.818 45.5984C744.328 45.5294 746.811 45.4053 749.334 45.2536C751.086 45.1433 752.892 44.9919 754.657 44.8402C757.167 44.6471 759.719 44.4123 762.215 44.1089C763.635 43.9434 765.055 43.737 766.476 43.5715C767.896 43.3647 769.317 43.1717 770.737 42.9648C776.419 42.1512 782.087 41.1307 787.699 39.9447C789.258 39.6137 790.858 39.2959 792.431 38.9373C796.471 38.0409 800.485 37.0347 804.484 35.9866C805.16 35.8349 805.863 35.6416 806.566 35.4486C808.649 34.9107 810.717 34.3181 812.785 33.7389C814.937 33.1597 817.088 32.5248 819.239 31.8628C819.487 31.8077 819.791 31.7112 820.039 31.6285C821.597 31.1458 823.156 30.6772 824.7 30.2084C826.259 29.7257 827.817 29.2567 829.334 28.7464C832.093 27.8914 834.823 26.9675 837.554 26.0435C839.002 25.5746 840.435 25.1057 841.883 24.6092C844.283 23.768 846.711 22.8987 849.11 22.0713C852.048 21.0232 854.999 19.9756 857.95 18.8862C859.978 18.1553 862.005 17.4242 864.032 16.6519C866.059 15.9348 868.087 15.1623 870.114 14.39C872.803 13.3971 875.492 12.4042 878.181 11.3699C879.505 10.8597 880.815 10.3634 882.195 9.86695C882.264 9.82558 882.291 9.8255 882.374 9.78412C882.484 9.72896 882.511 9.68716 882.621 9.68716H882.663V9.64608C883.849 9.20478 885.022 8.79078 886.166 8.33569C890.179 6.80491 894.193 5.31543 898.206 3.77086C900.854 2.77792 903.543 1.78547 906.191 0.820117C908.853 -0.172819 911.5 -1.12487 914.148 -2.09022C916.809 -3.04179 919.416 -3.99308 922.077 -4.91706C928.007 -7.01326 933.952 -9.01303 939.868 -10.8886C941.826 -11.5505 943.826 -12.1571 945.784 -12.7363C947.743 -13.3431 949.742 -13.9641 951.714 -14.5019C953.328 -14.9846 954.955 -15.4118 956.596 -15.8669C958.334 -16.3909 960.112 -16.8319 961.85 -17.287C962.967 -17.5766 964.085 -17.8805 965.202 -18.1287C965.271 -18.1425 965.38 -18.184 965.463 -18.184C967.159 -18.6391 968.869 -19.0385 970.579 -19.4108C972.593 -19.8797 974.552 -20.3075 976.524 -20.6936C978.055 -21.0522 979.585 -21.3417 981.143 -21.6175C983.612 -22.0726 986.025 -22.5279 988.452 -22.9003C996.616 -24.2104 1004.78 -25.0652 1012.94 -25.3824C1094.71 -28.6508 1195.22 41.0618 1278.57 5.123C1320.98 -13.8117 1343.5 -45.4069 1395.47 -45.3931C1465.6 -45.1449 1535.48 -22.1556 1591.76 -45.9999C1597.71 -34.0019 1604.2 -23.1482 1610.96 -13.205C1618.64 -2.03447 1626.72 7.96336 1635.09 16.9825C1646.01 28.815 1657.35 39.0207 1668.7 48.1916C1682.21 59.1828 1695.69 68.6293 1708.43 77.5933C1723.28 88.0467 1737.04 97.7689 1748.68 108.346L1748.72 108.388C1758.23 117.021 1766.27 126.206 1772.21 136.756C1774.83 141.376 1777.02 146.299 1778.79 151.54C1780.11 157.704 1782.1 163.537 1784.7 169.136C1789.72 180.1 1797.02 190.044 1806.16 199.228C1816.13 209.309 1828.31 218.494 1842.11 227.127C1855.27 235.388 1869.81 243.152 1885.36 250.695H1885.39C1901.61 258.639 1918.94 266.417 1936.69 274.305H1936.73C1953.41 281.752 1970.53 289.295 1987.61 297.308C2005.81 305.83 2023.88 314.823 2041.53 324.697" fill="white"/>
<path d="M1610.94 -13.1981C1548.03 -0.331286 1472.91 -15.9289 1404.07 -14.4809C1352.74 -13.3087 1329.36 15.4448 1287.3 34.1727C1197.12 72.8421 1097.83 2.66094 1010.71 7.10157C966.445 9.26672 927.789 30.3803 883.741 47.6187C878.487 49.6736 873.109 51.6737 867.689 53.6044C847.113 60.8308 826.606 66.1259 806.126 69.6288C805.533 69.7391 804.941 69.8497 804.334 69.9601C772.422 75.3247 740.717 76.4692 709.301 74.304C708.281 74.2489 707.288 74.1524 706.309 74.0697H706.269C703.883 73.918 701.497 73.7385 699.152 73.504C670.233 70.8976 642.679 64.1816 614.629 59.7961C614.242 59.7409 613.856 59.6583 613.442 59.617C587.681 55.6177 561.506 53.6315 533.524 58.6237C527.966 59.6167 522.327 61.0648 516.59 62.8162C514.894 63.3402 513.197 63.8918 511.501 64.4848C484.333 73.6143 455.427 89.3636 424.329 99.4998C421.778 100.327 419.309 101.086 416.868 101.817C415.641 102.148 414.454 102.479 413.268 102.824C413.241 102.824 413.241 102.824 413.241 102.824C374.889 113.332 349.418 109.236 320.43 105.595C320.706 105.154 320.98 104.685 321.215 104.258C321.835 103.32 322.415 102.382 322.994 101.389C324.663 98.576 326.166 96.0383 327.476 93.5835C329.434 90.0255 331.117 86.7159 332.703 83.1165C333.985 80.2067 335.227 77.145 336.565 73.6697C337.268 71.8631 337.916 70.0155 338.55 68.1675C369.648 73.6011 397.492 80.1103 441.871 66.0989C479.423 54.2388 518.562 41.2063 551.315 33.4697C556.886 32.132 562.319 31.1111 567.656 30.325C567.698 30.325 567.698 30.325 567.698 30.325C569.008 30.132 570.319 29.939 571.656 29.7735C620.793 23.6091 660.607 38.145 708.571 44.0061C709.482 44.144 710.391 44.2678 711.301 44.3643C712.225 44.4884 713.136 44.5849 714.046 44.6815C715.522 44.8056 716.998 44.9439 718.515 45.068C721.08 45.261 723.658 45.4263 726.223 45.5366C728.347 45.6332 730.457 45.6881 732.567 45.6605C733.78 45.7019 734.98 45.7023 736.193 45.7023C738.069 45.7023 739.917 45.6605 741.807 45.6053C744.317 45.5364 746.799 45.4123 749.323 45.2606C751.074 45.1502 752.88 44.9988 754.645 44.8471C757.155 44.654 759.707 44.4192 762.203 44.1158C763.624 43.9503 765.044 43.7439 766.464 43.5785C767.885 43.3716 769.305 43.1786 770.726 42.9717C776.449 42.1305 782.075 41.0963 787.688 39.9516C789.246 39.6207 790.847 39.3028 792.419 38.9443C796.46 38.0479 800.473 37.0416 804.473 35.9935C805.148 35.8418 805.851 35.6486 806.555 35.4555C808.637 34.9177 810.705 34.325 812.774 33.7458C814.925 33.1666 817.076 32.5317 819.228 31.8698C819.476 31.8146 819.779 31.7182 820.028 31.6354C821.586 31.1528 823.144 30.6842 824.689 30.2153C826.247 29.7326 827.806 29.2636 829.323 28.7534C832.081 27.8983 834.812 26.9744 837.542 26.0504C838.99 25.5815 840.424 25.1126 841.872 24.6161C844.272 23.7749 846.699 22.9056 849.099 22.0782C852.036 21.0301 854.988 19.9826 857.939 18.8931C859.966 18.1622 861.994 17.4311 864.021 16.6588C866.048 15.9417 868.075 15.1692 870.103 14.3969C872.792 13.404 875.481 12.4112 878.17 11.3768C879.494 10.8666 880.804 10.3703 882.183 9.87387C882.252 9.83249 882.279 9.83241 882.362 9.79104C882.473 9.73588 882.5 9.69407 882.61 9.69407H882.652C883.796 9.25277 884.969 8.7977 886.155 8.3426C890.168 6.81183 894.182 5.32234 898.195 3.77777C900.843 2.78484 903.532 1.79239 906.18 0.827032C908.841 -0.165904 911.488 -1.11795 914.136 -2.08331C916.798 -3.03487 919.404 -3.98617 922.066 -4.91015C927.996 -7.00635 933.94 -9.00612 939.857 -10.8817C941.815 -11.5436 943.815 -12.1502 945.773 -12.7294C947.731 -13.3362 949.731 -13.9572 951.703 -14.495C953.316 -14.9777 954.944 -15.4049 956.585 -15.8599C958.322 -16.384 960.101 -16.825 961.838 -17.2801C962.955 -17.5697 964.073 -17.8736 965.19 -18.1218C965.259 -18.1356 965.369 -18.177 965.452 -18.177C967.148 -18.6321 968.858 -19.0316 970.568 -19.4039C972.581 -19.8728 974.541 -20.3006 976.513 -20.6867C978.043 -21.0453 979.574 -21.3348 981.132 -21.6106C983.601 -22.0657 986.014 -22.521 988.441 -22.8934C996.605 -24.2035 1004.77 -25.0583 1012.93 -25.3755C1094.7 -28.6439 1195.21 41.0687 1278.56 5.12992C1320.96 -13.8048 1343.49 -45.4 1395.46 -45.3862C1465.59 -45.138 1535.47 -22.1487 1591.75 -45.9929C1597.7 -33.995 1604.19 -23.1412 1610.94 -13.1981" fill="#B31942"/>
<path d="M1668.69 48.192C1585.38 50.3158 1500.07 45.6818 1422.73 46.8264C1364.7 47.5987 1341.53 76.6284 1294.82 98.2523C1193.46 142.934 1083.76 60.0243 988.545 68.285C947.214 71.4431 917.55 94.8595 877.998 112.829L878.011 112.871C874.081 114.663 870.054 116.387 865.889 118.042C851.629 123.724 837.053 127.53 822.324 130.04C820.752 130.288 819.153 130.536 817.581 130.785C813.485 131.419 809.319 131.943 805.21 132.357C805.168 132.398 805.127 132.357 805.127 132.357C803.486 132.536 801.831 132.715 800.19 132.853C770.126 135.529 739.953 133.833 711.392 132.205C710.027 132.095 708.702 132.026 707.378 131.957C702.152 131.653 697.007 131.323 691.946 131.088C691.188 131.047 690.429 130.992 689.685 130.964C688.995 130.923 688.278 130.895 687.603 130.867H687.561C659.91 129.323 633.156 125.227 606.319 122.041C599.286 121.173 592.239 120.4 585.178 119.752C560.203 117.407 534.938 116.608 508.46 120.069C497.813 121.49 486.877 123.614 475.61 126.206C474.948 126.358 474.273 126.51 473.57 126.661C473.57 126.703 473.569 126.703 473.528 126.703C447.932 132.646 421.053 140.935 393.789 148.671L393.762 148.713C381.102 152.326 368.359 155.843 355.617 158.932C324.477 166.572 293.53 171.909 264.211 170.764C277.891 158.035 284.388 151.595 296.068 138.204C310.383 139.377 324.988 138.618 339.785 136.59C341.096 136.397 342.405 136.204 343.715 136.011C378.951 130.605 415.11 118.193 450.442 107.202C452.262 106.637 454.082 106.113 455.848 105.548C477.665 98.8591 499.11 92.9291 519.837 89.6607C524.347 88.9711 528.76 88.4193 533.186 88.0331C541.75 87.2057 550.219 86.8884 558.548 86.9436L558.672 86.9301C585.289 87.068 610.967 90.9711 636.838 94.7635C637.169 94.8187 637.556 94.8457 637.901 94.9009C649.237 96.5972 660.613 98.2249 672.073 99.5075C679.548 100.349 687.051 101.052 694.622 101.521C708.771 102.403 723.209 103.079 737.759 103.258C749.274 103.451 760.914 103.286 772.553 102.666C794.426 101.562 816.449 98.7901 838.349 93.4255C848.334 90.9846 858.276 87.9919 868.192 84.3511C868.302 84.3511 868.385 84.31 868.481 84.2548C873.088 82.5723 877.583 80.7791 881.983 78.9587C924.127 61.5961 958.922 39.3245 1001.78 36.7042C1092.58 30.7604 1195.34 105.424 1290.8 64.6305C1335.64 44.6753 1359.57 15.7286 1414.54 14.777C1485.29 13.6599 1564.2 23.1613 1635.08 16.983C1646.01 28.8155 1657.34 39.0212 1668.69 48.192" fill="#B31942"/>
<path d="M1748.68 108.348C1628.33 105.3 1532.8 113.961 1430.65 116.581C1368.72 117.753 1349.36 145.377 1301.01 170.269C1191.48 223.184 1069.02 119.518 968.304 131.903C926.049 136.095 903.294 163.304 865.687 183.177C861.37 185.452 856.874 187.645 852.102 189.686C851.371 189.989 850.668 190.307 849.978 190.527C849.937 190.527 849.938 190.527 849.938 190.527C843.318 193.217 836.588 195.285 829.789 196.885C802.635 203.298 774.225 202.208 746.671 199.105C739.362 198.333 732.136 197.381 724.993 196.402C705.561 193.74 686.834 190.803 669.65 189.728C660.576 189.135 651.585 188.293 642.635 187.383C642.635 187.383 642.634 187.383 642.593 187.397C631.34 186.17 620.197 184.763 609.068 183.343C587.113 180.543 565.296 177.605 543.148 175.95C543.107 175.95 543.106 175.95 543.065 175.95C530.722 175.068 518.282 174.53 505.678 174.668C498.52 174.751 491.336 174.999 484.054 175.537C461.134 177.274 435.855 182.211 409.142 188.445C409.115 188.445 409.074 188.486 409.033 188.486C398.938 190.817 388.69 193.382 378.223 196.03C378.072 196.043 377.975 196.085 377.865 196.14C337.334 206.318 294.569 217.861 252.687 224.784C249.391 225.321 246.15 225.859 242.868 226.301C242.826 226.301 242.826 226.301 242.826 226.301C234.207 227.638 225.601 228.7 217.092 229.459C216.94 229.5 216.802 229.514 216.637 229.486H216.596C208.06 230.328 199.619 230.852 191.221 231.045L191 231.058C191.607 230.562 192.214 230.106 192.834 229.624L192.863 229.583C207.412 218.233 215.328 212.151 229.932 200.305C241.502 200.374 253.294 199.643 265.264 198.292C265.306 198.278 265.305 198.277 265.305 198.277C265.525 198.264 265.747 198.223 266.009 198.195H266.133C274.518 197.257 282.985 195.975 291.522 194.499C293.908 194.085 296.334 193.658 298.747 193.216C332.204 186.941 366.24 177.412 399.048 168.614C399.09 168.614 399.09 168.614 399.09 168.614C399.159 168.559 399.24 168.559 399.309 168.517C399.337 168.517 399.338 168.517 399.338 168.517C423.775 161.967 447.508 155.775 469.822 151.596C472.056 151.155 474.29 150.741 476.483 150.341C483.874 149.086 491.088 148.079 498.121 147.334C562.165 140.908 620.045 155.788 682.628 159.071C685.234 159.209 687.881 159.374 690.529 159.553C691.743 159.622 692.985 159.691 694.24 159.815C730.22 162.463 770.378 168.228 809.64 164.035C810.509 163.953 811.406 163.856 812.261 163.759C828.617 161.829 844.821 158.147 860.46 151.692C864.694 149.927 868.721 148.093 872.638 146.149C910.369 127.572 935.289 102.432 976.248 98.6942C1075.07 88.0891 1192.03 180.943 1298.37 131.917C1346.06 108.652 1367.59 79.9112 1427.88 79.07C1516.05 77.4978 1608.54 77.0568 1708.43 77.5946C1723.28 88.048 1737.04 97.7702 1748.68 108.348" fill="#B31942"/>
<path d="M1784.69 169.138C1650.44 167.194 1565.45 187.701 1454.23 197.162C1381.37 202.444 1354.81 229.583 1294.21 258.199C1189.57 304.081 1080.41 193.217 987.587 201.05C937.086 203.615 898.665 238.092 849.584 261.481C842.082 265.095 834.304 268.404 826.195 271.314C757.489 295.338 690.437 267.798 629.951 259.91C557.301 249.911 489.906 222.702 412.346 232.452C333.628 242.243 226.902 283.988 129.346 290.925C133.028 287.077 136.779 283.189 140.531 279.217C146.778 272.639 153.135 266.295 159.493 260.172C198.052 257.786 238.046 250.049 277.267 240.878C277.308 240.878 277.307 240.878 277.349 240.878C286.106 238.851 294.877 236.755 303.565 234.631C343.241 224.867 381.58 214.703 416.457 208.373H416.483C416.759 208.277 416.981 208.235 417.243 208.208C417.271 208.208 417.312 208.208 417.312 208.208C433.709 205.229 449.361 203.105 463.98 202.306C493.092 200.789 521.06 203.146 548.835 206.718C548.835 206.718 548.834 206.718 548.862 206.718C555.178 207.532 561.439 208.373 567.713 209.27C593.847 212.979 619.967 217.268 646.804 219.806C647.604 219.903 648.363 219.971 649.163 220.026C649.88 220.095 650.68 220.164 651.397 220.275C651.438 220.275 651.438 220.275 651.479 220.275C656.747 220.771 662.098 221.447 667.614 222.275C667.614 222.275 667.615 222.275 667.656 222.275C668.828 222.454 670.055 222.647 671.268 222.867C701.691 227.708 735.189 236.121 768.935 238.162C768.976 238.148 768.977 238.147 769.018 238.147C776.879 238.603 784.767 238.754 792.614 238.368C794.241 238.313 795.854 238.203 797.454 238.065C812.541 237.003 827.518 234.038 842.081 228.37C847.735 226.095 853.087 223.585 858.203 220.923C899.3 199.658 924.896 168.877 970.709 164.615C1070.28 152.314 1192.26 264.101 1301.52 210C1350.48 184.06 1368.06 158.575 1430.89 156.782C1545.74 152.231 1635.09 132.083 1772.2 136.758C1774.82 141.378 1777.01 146.301 1778.78 151.542C1780.1 157.706 1782.09 163.539 1784.69 169.138" fill="#B31942"/>
<path d="M1842.1 227.132C1717.25 236.841 1613.94 251.335 1506.83 263.967C1433.44 271.993 1400.99 299.727 1340.76 334.672C1226.27 398.565 1100.32 292.817 991.647 295.41C925.741 295.686 871.103 335.665 801.763 357.537C723.666 381.919 645.264 364.474 575.758 350.477C506.17 335.872 447.946 297.272 376.179 299.478C293.103 301.85 181.053 342.643 84.2559 335.803C91.6477 328.866 98.9015 321.847 106.1 314.648C202.084 313.242 308.122 272.6 388.687 263.939C467.474 255.238 532.8 290.376 606.843 303.45C672.597 314.483 742.434 335.707 816.573 311.007C882.452 288.639 934.581 243.198 997.012 242.756C1092.07 239.364 1201.06 346.849 1306.77 297.975C1370.05 266.835 1399.43 236.316 1475.19 230.138C1584.09 219.891 1677.3 202.515 1806.15 199.233C1816.12 209.314 1828.29 218.499 1842.1 227.132Z" fill="#B31942"/>
<path d="M1936.69 274.308C1827.33 296.538 1720.38 309.612 1621.78 326.257C1531.45 340.696 1483.26 387.447 1404.75 430.005C1263.8 504.751 1096.87 415.566 959.392 410.946C833.786 405.733 700.733 489.857 562.935 461.407C476.922 442.031 412.961 384.109 329.734 381.034C235.115 376.979 126.65 407.168 30.2383 381.214C41.464 372.829 51.9867 364.361 61.9988 355.742C156.328 371.891 263.11 337.786 351.413 337.165C432.047 336.186 494.672 386.04 575.499 403.182C646.991 417.511 721.667 423.234 798.495 398.893C863.808 378.221 919.123 346.309 982.023 347.454C1100.2 348.226 1240.82 445.934 1365.85 382.993C1438.58 345.041 1479.66 304.675 1564.5 293.849C1666.21 279.796 1769.71 266.157 1885.36 250.698H1885.39C1901.61 258.641 1918.94 266.419 1936.69 274.308Z" fill="#B31942"/>
<path d="M2041.53 324.697C1929.33 370.275 1797.82 377.791 1691.6 405.359C1609.2 426.817 1555.76 480.504 1482.56 527.269C1470.62 534.992 1458.42 541.901 1445.99 548.025C1437.69 552.12 1429.29 555.858 1420.81 559.319C1410.17 563.608 1399.42 567.456 1388.55 570.807C1384.18 572.131 1379.82 573.385 1375.41 574.613C1371.04 575.826 1366.61 576.93 1362.17 577.992C1213.38 613.696 1044.51 573.096 903.308 550.507C777.37 531.448 648.359 623.418 513.209 587.425C426.796 562.794 363.275 500.032 281.372 487.207C222.265 476.864 168.3 497.992 95.8023 502.487C88.3691 502.887 81.1704 503.039 74.1923 502.943C67.2142 502.86 60.4988 502.515 53.9344 501.949C47.3424 501.384 40.9988 500.612 34.7929 499.646C32.6967 499.329 30.6413 498.998 28.614 498.64C24.5458 497.909 20.5465 497.109 16.6023 496.226C-22.9083 487.511 -56.7097 471.458 -94 455.667C-64.3085 441.022 -38.8088 426.873 -16.2747 412.875C37.3163 431.617 84.0257 449.255 155.765 444.207C204.847 440.718 258.755 423.99 301.189 427.066C390.057 431.823 456.363 500.598 549.271 521.656C680.821 548.576 809.834 466.783 931.524 476.23C1089.07 488.366 1283.12 566.559 1440 478.339C1523.64 430.885 1578.08 377.501 1673.3 359.256C1771.2 339.783 1882.19 327.137 1987.61 297.308C2005.81 305.83 2023.88 314.823 2041.53 324.697" fill="#B31942"/>
<path d="M883.76 47.6137C883.595 57.9843 882.96 68.3826 881.995 78.9601C881.043 90.0755 879.664 101.343 878.009 112.83L878.023 112.872C876.478 123.739 874.645 134.785 872.645 146.149C870.522 158.161 868.163 170.476 865.695 183.177C863.323 195.355 860.799 207.904 858.22 220.923C855.669 233.817 853.075 247.139 850.441 261.026C850.152 261.191 849.891 261.316 849.601 261.481C751.493 316.631 604.758 260.171 523.434 245.208C473.332 235.831 436.98 225.405 371.446 240.478C295.431 257.937 212.232 286.001 129.184 291.076C129.266 291.035 129.294 290.966 129.363 290.925C133.045 287.077 136.796 283.188 140.548 279.217C146.795 272.638 153.152 266.295 159.51 260.171C170.06 249.925 180.692 240.299 191.229 231.045L191.008 231.059C191.615 230.562 192.221 230.107 192.842 229.624L192.87 229.583C245.041 183.991 294.866 147.776 323.013 101.384C324.681 98.5709 326.185 96.0332 327.495 93.5785C329.357 90.1308 331.094 86.6833 332.722 83.1115C334.004 80.2016 335.246 77.1399 336.584 73.6647C337.287 71.8581 337.935 70.0104 338.569 68.1625C431.519 84.6149 526.041 -4.52883 629.513 22.1977C712.492 43.6424 783.984 46.028 878.189 11.3718C879.513 10.8615 880.823 10.3653 882.202 9.86883C882.271 9.82746 882.298 9.82738 882.381 9.786C882.491 9.73084 882.519 9.68904 882.629 9.68904H882.671C883.733 22.3214 884.022 34.94 883.76 47.6137" fill="#0A3161"/>
<path d="M375.84 84.0611C376.184 87.7708 376.322 89.5633 376.501 93.0662C383.452 92.8593 386.94 92.5147 393.974 91.4803C387.037 94.4867 383.59 95.8796 376.708 98.3757C376.805 101.741 376.805 103.382 376.805 106.567C372.516 105.05 370.364 104.127 366.089 101.948C359.235 104.086 355.829 105.009 349.085 106.54C353.305 103.285 355.402 101.616 359.525 98.2377C355.291 95.6037 353.181 94.1005 348.975 90.6528C355.58 92.1146 358.974 92.5426 365.828 92.9288C369.869 89.4535 371.868 87.6743 375.84 84.0611" fill="white"/>
<path d="M483.912 53.8078C483.774 56.5108 483.733 57.8348 483.623 60.4689C489.773 57.6142 492.807 56.1936 498.737 53.4907C492.697 57.8485 489.649 60.0547 483.457 64.4815C483.388 67.0604 483.333 68.3293 483.305 70.853C479.554 71.0047 477.651 71.1152 473.817 71.3082C467.487 75.7351 464.288 77.9278 457.82 82.2856C461.833 78.0657 463.818 75.9419 467.804 71.6254C463.887 71.8185 461.902 71.9016 457.847 72.0119C464.398 69.2262 467.624 67.7779 473.954 64.8957C477.94 60.524 479.913 58.3036 483.912 53.8078Z" fill="white"/>
<path d="M572.328 25.7869C571.652 29.7862 571.21 31.7993 571.528 35.7986C579.209 36.5709 582.892 36.9985 590.036 37.9225C583.072 39.4808 579.485 40.2806 572.148 41.9217C572.603 45.8382 572.893 47.7693 573.583 51.5894C568.466 48.7622 564.992 47.2172 562.054 44.5418C556.842 46.3897 554.262 47.4659 549.049 49.8379C552.359 46.2247 554.041 44.4042 557.544 40.7358C554.607 38.4742 553.159 37.4949 550.194 35.8263C555.393 35.0815 557.944 34.9025 563.019 35.068C566.632 31.3721 568.466 29.5242 572.328 25.7869Z" fill="white"/>
<path d="M671.153 42.76C671.525 46.4422 671.76 48.2492 672.353 51.821C677.841 52.814 680.531 53.3104 685.896 54.2068C680.972 55.4342 678.476 56.0406 673.36 57.268C674.063 60.7708 674.476 62.4809 675.359 65.8872C671.318 63.267 669.319 61.9298 665.347 59.1716C660.106 60.4128 657.444 61.0469 651.969 62.3156C654.893 59.3368 656.356 57.8334 659.28 54.8546C655.391 52.0137 653.459 50.5522 649.611 47.5733C655.417 48.6628 658.245 49.2009 663.817 50.2352C666.741 47.2564 668.201 45.7526 671.153 42.76" fill="white"/>
<path d="M753.57 52.8715C755.322 55.6986 756.232 57.0916 758.163 59.8774C763.886 59.6567 766.796 59.464 772.754 58.9124C768.175 61.1189 765.859 62.1664 761.225 64.1661C763.266 66.9381 764.327 68.3033 766.493 71.0615C761.321 69.5859 758.825 68.8276 753.999 67.1727C749.296 69.0759 746.924 69.9723 742.166 71.71C744.028 68.8415 744.937 67.4208 746.73 64.5385C742.11 62.7733 739.918 61.836 735.629 59.8639C741.076 60.0845 743.821 60.1393 749.42 60.0841C751.13 57.2018 751.971 55.7676 753.57 52.8715" fill="white"/>
<path d="M848.645 33.4383C851.169 35.9068 852.396 37.1615 854.782 39.6576C860.699 37.5338 863.65 36.4309 869.483 34.1831C865.057 37.9755 862.821 39.8508 858.381 43.5329C860.67 46.0428 861.773 47.312 863.897 49.8357C859.029 49.6013 856.561 49.4768 851.5 49.1597C847.032 52.7728 844.784 54.5379 840.302 57.958C841.626 54.2483 842.288 52.3865 843.584 48.6492C838.399 48.2907 835.765 48.0842 830.414 47.6291C836.537 45.8363 839.543 44.871 845.556 42.8575C846.811 39.1064 847.445 37.217 848.645 33.4383Z" fill="white"/>
<path d="M416.852 99.4538C416.88 102.088 416.879 103.37 416.879 105.894C423.816 103.55 427.263 102.267 434.062 99.6053C427.263 103.756 423.83 105.797 416.866 109.728C416.879 112.182 416.879 113.383 416.879 115.713C412.535 115.837 410.356 115.837 406.012 115.686C398.91 119.45 395.324 121.271 388.084 124.718C392.621 120.995 394.869 119.106 399.296 115.286C394.952 114.899 392.787 114.637 388.471 113.837C395.531 112.306 399.061 111.383 406.081 109.314C410.425 105.425 412.591 103.453 416.852 99.4538Z" fill="white"/>
<path d="M516.637 58.5789C516.582 61.406 516.554 62.8263 516.623 65.6534C522.167 63.9571 524.871 63.2265 530.222 62.1922C524.912 65.1296 522.208 66.7155 516.761 70.0115C516.899 72.8386 516.995 74.2589 517.271 77.086C513.658 76.162 511.852 75.8033 508.238 75.2793C502.653 78.7822 499.798 80.6165 493.992 84.3813C497.454 80.5061 499.164 78.5619 502.625 74.6315C498.971 74.3281 497.151 74.2449 493.455 74.1898C499.371 71.735 502.267 70.5768 507.949 68.5496C511.397 64.5916 513.134 62.592 516.637 58.5789" fill="white"/>
<path d="M614.436 58.6721C615.126 62.3818 615.513 64.23 616.354 67.8294C622.974 68.6844 626.173 69.1393 632.503 69.9943C626.725 71.3182 623.76 72.008 617.747 73.3733C618.685 76.9313 619.195 78.6688 620.257 82.144C615.527 79.5238 613.141 78.2001 608.301 75.4971C602.109 76.89 598.936 77.5931 592.482 79.0135C595.778 75.952 597.447 74.4076 600.798 71.3047C595.916 68.5741 593.461 67.1954 588.441 64.4234C595.668 65.2371 599.17 65.6505 605.983 66.5055C609.348 63.3888 611.03 61.8164 614.436 58.6721" fill="white"/>
<path d="M708.208 71.642C709.477 74.7725 710.152 76.3169 711.545 79.3785C717.365 79.7922 720.289 79.9575 726.205 80.1919C721.268 81.7916 718.786 82.5778 713.78 84.0948C715.255 87.1426 716.042 88.6461 717.614 91.6387C712.884 89.6114 710.567 88.5767 706.016 86.4254C700.941 87.9148 698.403 88.6459 693.259 90.0939C695.604 87.253 696.748 85.8462 699.065 83.0329C694.624 80.7988 692.445 79.6404 688.156 77.2546C693.962 77.889 696.816 78.1783 702.595 78.6748C704.87 75.8615 705.988 74.4554 708.208 71.642" fill="white"/>
<path d="M804.922 68.3951C807.515 71.0567 808.783 72.3943 811.252 75.0973C817.306 74.0078 820.313 73.3595 826.243 71.9115C821.761 75.0006 819.499 76.504 815.031 79.2897C817.431 82.0203 818.589 83.399 820.85 86.171C815.844 85.1642 813.293 84.6126 808.08 83.4404C803.571 86.0055 800.951 87.2191 795.366 89.6187C797.131 86.4192 798 84.8059 799.613 81.5651C793.435 80.4066 790.456 79.8137 784.678 78.545C791.435 77.8968 795.738 77.3728 801.861 76.5592C803.088 73.3321 803.709 71.6911 804.922 68.3951Z" fill="white"/>
<path d="M344.006 133.698C343.606 136.87 343.384 138.401 342.943 141.407C350.1 140.897 353.714 140.428 361.023 139.173C353.549 142.11 349.798 143.476 342.268 145.972C341.827 148.868 341.593 150.274 341.165 153.046C336.849 151.943 334.724 151.268 330.615 149.585C323.085 151.764 319.293 152.729 311.805 154.384C316.921 151.337 319.431 149.805 324.409 146.675C320.465 144.579 318.562 143.379 314.908 140.566C321.569 141.559 325.015 141.779 332.007 141.793C336.876 138.607 339.262 136.98 344.006 133.698" fill="white"/>
<path d="M455.561 102.071C455.726 104.319 455.809 105.423 456.03 107.643C462.677 104.885 465.917 103.533 472.316 100.995C466.096 104.953 462.91 106.967 456.415 111.035C456.691 113.214 456.856 114.29 457.201 116.455C452.802 116.745 450.61 116.938 446.21 117.324C439.48 121.42 436.032 123.475 429.054 127.557C433.246 123.737 435.316 121.806 439.412 117.944C434.999 118.344 432.806 118.551 428.406 118.882C435.398 116.138 438.859 114.717 445.658 111.932C449.658 108.015 451.631 106.043 455.561 102.071" fill="white"/>
<path d="M547.762 77.4057C548.135 80.9362 548.245 82.7426 549.72 86.2041C557.857 86.8798 561.815 87.2249 569.483 87.9145C562.643 89.3625 559.154 90.0936 552.01 91.5278C553.541 94.9617 554.326 96.6575 555.885 100.022C549.996 97.5263 546.065 96.2302 542.342 93.6375C537.418 94.989 534.909 95.8164 529.779 97.7195C532.51 94.6166 533.875 93.0584 536.606 89.9555C532.91 87.7903 531.089 86.8527 527.393 85.2667C532.868 84.7841 535.557 84.7422 540.839 85.1698C543.583 82.0668 544.963 80.5086 547.762 77.4057Z" fill="white"/>
<path d="M657.08 89.0147C658.238 92.3107 658.859 93.9386 660.1 97.1794C666.306 97.7724 669.382 98.0617 675.505 98.5996C670.168 100.02 667.506 100.737 662.072 102.144C663.368 105.357 664.03 106.929 665.354 110.087C660.651 107.826 658.321 106.681 653.605 104.337C648.075 105.757 645.289 106.461 639.635 107.867C642.324 104.985 643.675 103.55 646.337 100.668C641.648 98.2686 639.305 97.041 634.561 94.5586C641.015 95.2344 644.186 95.5794 650.46 96.2138C653.122 93.3315 654.446 91.897 657.08 89.0147" fill="white"/>
<path d="M754.771 94.3654C756.853 97.2201 757.902 98.6401 760.067 101.509C766.88 101.329 770.355 101.191 777.498 100.819C771.844 102.943 769.017 103.963 763.418 105.935C765.597 108.818 766.728 110.266 768.976 113.19C763.115 111.507 760.301 110.652 754.757 108.928C749.172 110.817 746.359 111.728 740.829 113.507C743.091 110.597 744.194 109.135 746.359 106.211C741.008 104.446 738.415 103.536 733.326 101.674C739.739 101.757 743.007 101.771 749.654 101.702C751.75 98.7644 752.771 97.3028 754.771 94.3654" fill="white"/>
<path d="M854.5 79.4891C856.348 82.1507 857.218 83.4879 858.9 86.1771C864.182 84.205 866.817 83.171 871.988 80.9921C867.727 84.7983 865.602 86.6736 861.382 90.3419C862.941 93.0449 863.672 94.4108 865.037 97.1275C861.08 96.7138 859.051 96.4789 854.845 95.941C850.598 99.4991 848.461 101.251 844.241 104.588C845.841 100.768 846.627 98.851 848.212 95.0172C843.841 94.369 841.579 94.0242 836.959 93.2105C842.503 91.7349 845.234 90.9078 850.626 89.0874C852.184 85.2536 852.956 83.3367 854.5 79.4891" fill="white"/>
<path d="M384.224 144.672C384.169 146.92 384.141 148.023 384.127 150.188C391.808 147.761 395.643 146.45 403.214 143.775C395.712 147.747 391.891 149.692 384.127 153.498C384.154 155.622 384.169 156.656 384.252 158.71C379.301 159.055 376.818 159.165 371.991 159.29C364.034 162.958 360.008 164.751 351.844 168.171C357.015 164.655 359.566 162.875 364.558 159.317C359.814 159.248 357.456 159.124 352.836 158.683C360.573 156.973 364.462 155.966 372.212 153.773C377.094 150.16 379.48 148.34 384.224 144.672" fill="white"/>
<path d="M494.53 104.885C495.081 107.368 495.386 108.609 496.048 111.119C502.295 109.616 505.356 109.009 511.341 108.195C505.798 110.719 502.97 112.084 497.122 115.022C497.839 117.545 498.24 118.827 499.054 121.392C494.599 120.496 492.365 120.179 487.924 119.71C481.842 122.868 478.725 124.523 472.299 127.971C475.871 124.468 477.61 122.703 481.043 119.172C476.589 118.938 474.369 118.91 469.9 118.951C476.575 116.648 479.857 115.587 486.27 113.725C489.621 110.195 491.261 108.43 494.53 104.885" fill="white"/>
<path d="M599.498 105.866C600.877 109.189 601.567 110.844 602.96 114.14C609.938 114.775 613.359 115.092 620.075 115.698C614.172 117.105 611.206 117.808 605.125 119.201C606.531 122.47 607.222 124.097 608.587 127.324C603.498 124.966 600.918 123.766 595.65 121.353C589.444 122.732 586.3 123.421 579.901 124.773C582.908 121.932 584.425 120.484 587.417 117.601C582.039 115.16 579.308 113.933 573.695 111.451C581.225 112.14 584.894 112.485 592.052 113.133C595.03 110.237 596.519 108.776 599.498 105.866Z" fill="white"/>
<path d="M702.177 114.155C703.708 117.175 704.48 118.692 706.025 121.699C712.479 121.961 715.748 122.057 722.368 122.223C716.782 123.905 713.983 124.719 708.411 126.346C709.97 129.367 710.728 130.869 712.259 133.89C707.211 131.89 704.715 130.884 699.792 128.843C694.207 130.442 691.406 131.214 685.807 132.8C688.427 129.932 689.71 128.512 692.234 125.657C687.393 123.575 684.981 122.526 680.195 120.388C686.539 120.775 689.71 120.954 696.095 121.258C698.564 118.417 699.777 116.996 702.177 114.155" fill="white"/>
<path d="M812.187 112.846C814.201 115.88 815.18 117.411 817.001 120.486C822.475 119.907 825.179 119.465 830.475 118.376C826.2 121.327 824.061 122.706 819.759 125.271C821.483 128.374 822.31 129.96 823.841 133.105C819.648 131.615 817.512 130.788 813.057 129.023C808.699 131.298 805.665 132.305 798.935 134.415C801.555 131.147 802.797 129.505 805.238 126.209C798.48 124.458 795.197 123.603 788.84 121.893C796.645 121.631 802.893 121.341 808.465 121.121C809.996 117.838 810.712 116.183 812.187 112.846Z" fill="white"/>
<path d="M302.544 178.407C301.8 181.22 301.442 182.599 300.738 185.274C308.765 184.447 312.847 183.84 321.08 182.351C312.585 185.343 308.282 186.75 299.704 189.356C299.056 191.977 298.738 193.246 298.159 195.728C293.305 194.969 290.947 194.473 286.424 193.19C277.804 195.521 273.488 196.583 264.938 198.458C270.868 195.48 273.791 193.963 279.61 190.929C275.321 189.274 273.281 188.308 269.42 186.005C276.825 186.515 280.659 186.543 288.492 186.184C294.188 183.109 296.987 181.551 302.544 178.407" fill="white"/>
<path d="M428.413 144.828C428.813 146.813 429.033 147.806 429.502 149.778C437.156 147.089 440.935 145.779 448.341 143.325C441.28 147.048 437.68 148.964 430.247 152.826C430.743 154.798 431.019 155.791 431.557 157.763C426.372 158.135 423.752 158.37 418.566 158.853C410.871 162.783 406.926 164.769 398.886 168.727C403.644 165.1 405.988 163.279 410.567 159.638C405.395 160.163 402.818 160.425 397.701 160.935C405.714 158.177 409.699 156.756 417.532 153.998C421.973 150.344 424.137 148.51 428.413 144.828" fill="white"/>
<path d="M534.432 122.799C535.494 126.082 535.977 127.792 537.756 131.019C545.906 131.819 549.864 132.205 557.573 132.95C550.843 134.205 547.436 134.839 540.472 135.998C542.21 139.239 543.037 140.838 544.665 144.051C538.817 141.555 535.162 140.272 530.611 137.625C525.095 138.604 522.268 139.252 516.407 140.852C519.372 138.039 520.82 136.632 523.605 133.86C519.082 131.653 516.82 130.716 512.283 129.13C518.641 128.868 521.758 128.936 527.853 129.612C530.542 126.868 531.853 125.502 534.432 122.799" fill="white"/>
<path d="M647.245 132.843C648.527 135.987 649.162 137.545 650.376 140.69C656.844 141.103 660.084 141.296 666.538 141.669C660.829 143.213 657.974 143.985 652.224 145.502C653.41 148.633 653.961 150.178 655.037 153.308C650.362 151.143 648.03 150.054 643.286 147.861C637.467 149.364 634.544 150.109 628.642 151.598C631.621 148.73 633.082 147.295 635.951 144.427C631.165 142.193 628.751 141.076 623.855 138.787C630.516 139.297 633.799 139.545 640.322 140C643.149 137.145 644.528 135.711 647.245 132.843Z" fill="white"/>
<path d="M752.903 137.102C754.806 140.164 755.744 141.709 757.606 144.825C765.122 144.936 768.983 144.977 776.913 145.046C770.279 146.949 766.97 147.873 760.474 149.693C762.322 152.879 763.247 154.479 765.053 157.748C759.068 155.582 756.172 154.534 750.476 152.466C744.036 154.217 740.851 155.1 734.534 156.796C737.527 153.79 738.989 152.286 741.843 149.28C736.341 147.253 733.651 146.232 728.355 144.232C735.334 144.411 738.878 144.494 746.173 144.632C748.931 141.626 750.269 140.123 752.903 137.102" fill="white"/>
<path d="M853.104 128.168C854.221 131.119 854.717 132.594 855.669 135.559C860.261 133.684 862.495 132.636 866.922 130.443C862.978 134.415 861.006 136.374 857.048 140.166C857.875 143.145 858.261 144.648 858.951 147.654C855.848 147.061 854.221 146.73 850.884 145.93C846.857 149.599 844.844 151.364 840.748 154.743C842.72 150.688 843.685 148.647 845.588 144.579C842.071 143.641 840.279 143.117 836.514 141.918C841.396 140.704 843.794 139.973 848.497 138.304C850.345 134.25 851.27 132.222 853.104 128.168Z" fill="white"/>
<path d="M347.287 186.091C347.231 188.145 347.217 189.139 347.203 191.138C356.057 188.587 360.443 187.249 369.186 184.518C360.553 188.435 356.126 190.38 347.203 194.186C347.203 196.158 347.259 197.123 347.287 199.054C341.605 199.523 338.806 199.729 333.248 200.005C324.118 203.715 319.471 205.522 310.148 209.039C316.065 205.563 318.973 203.825 324.738 200.322C319.277 200.46 316.574 200.461 311.334 200.254C320.16 198.351 324.615 197.261 333.496 194.916C339.122 191.4 341.853 189.635 347.287 186.091Z" fill="white"/>
<path d="M475.203 146.759C476.017 149.076 476.431 150.262 477.245 152.648C484.568 151.297 488.153 150.773 495.186 150.152C488.705 152.414 485.381 153.669 478.513 156.372C479.341 158.799 479.741 160.026 480.513 162.536C475.397 161.571 472.845 161.226 467.673 160.729C460.516 163.681 456.835 165.253 449.25 168.535C453.552 165.17 455.62 163.502 459.675 160.164C454.49 159.902 451.856 159.888 446.629 159.944C454.434 157.737 458.269 156.744 465.799 155.02C469.66 151.697 471.548 150.055 475.203 146.759" fill="white"/>
<path d="M588.013 150.08C589.268 153.307 589.875 154.893 590.978 158.106C597.901 158.726 601.321 159.016 608.051 159.554C601.956 160.989 598.852 161.692 592.605 163.071C593.598 166.284 594.039 167.884 594.853 171.111C590.178 168.753 587.764 167.567 582.841 165.167C576.47 166.491 573.243 167.139 566.692 168.366C570.126 165.608 571.823 164.229 575.105 161.43C570.003 159.016 567.396 157.775 562.018 155.307C569.423 156.079 573.036 156.451 580.125 157.113C583.352 154.3 584.896 152.907 588.013 150.08" fill="white"/>
<path d="M693.166 156.977C694.324 160.08 694.861 161.638 695.909 164.769C702.667 165.072 706.101 165.224 713.079 165.527C706.79 167.182 703.674 168.01 697.454 169.651C698.419 172.809 698.888 174.422 699.702 177.636C694.93 175.429 692.558 174.326 687.869 172.175C681.663 173.788 678.588 174.602 672.396 176.229C675.789 173.264 677.43 171.789 680.657 168.837C676.01 166.686 673.706 165.637 669.086 163.486C675.623 163.831 678.906 163.983 685.553 164.286C688.669 161.362 690.187 159.901 693.166 156.977" fill="white"/>
<path d="M811.393 161.083C812.551 164.599 813.089 166.365 814.054 169.936C819.156 169.854 821.625 169.605 826.466 168.847C822.163 171.743 819.971 173.081 815.461 175.48C816.316 179.093 816.688 180.914 817.364 184.555C813.889 182.5 812.095 181.383 808.372 178.928C803.724 180.997 800.154 181.755 792.238 183.396C795.989 180.045 797.809 178.349 801.367 174.97C794.431 172.336 791.093 171.081 784.598 168.654C793.148 169.067 800.815 169.329 806.069 169.715C808.289 166.295 809.338 164.558 811.393 161.083" fill="white"/>
<path d="M253.938 220.718C253.11 223.352 252.723 224.635 251.965 227.172C261.039 226.028 265.672 225.283 275.023 223.546C265.369 226.704 260.515 228.207 250.862 231.048C250.158 233.53 249.841 234.744 249.207 237.157C243.745 236.633 241.056 236.26 235.926 235.254C226.273 237.846 221.459 239.06 211.93 241.28C218.467 238.164 221.708 236.605 228.176 233.474C223.28 232.151 220.949 231.351 216.522 229.462C224.893 229.503 229.238 229.337 238.105 228.62C244.49 225.462 247.663 223.89 253.938 220.718" fill="white"/>
<path d="M398.174 184.905C398.546 186.794 398.725 187.76 399.07 189.676C407.909 187.015 412.24 185.719 420.832 183.347C412.53 186.974 408.282 188.835 399.58 192.655C399.911 194.6 400.049 195.565 400.283 197.551C394.574 197.882 391.72 198.116 385.928 198.613C376.936 202.502 372.343 204.488 363.034 208.473C368.73 204.832 371.53 203.039 376.977 199.426C371.171 199.978 368.261 200.281 362.469 200.861C371.681 198.047 376.246 196.627 385.279 193.869C390.547 190.27 393.127 188.477 398.174 184.905" fill="white"/>
<path d="M521.681 165.083C522.632 168.337 523.074 170.048 524.15 173.288C531.928 174.433 535.707 174.957 543.14 175.936C536.259 176.984 532.768 177.467 525.666 178.335C526.562 181.604 526.921 183.245 527.487 186.555C522.536 183.783 519.723 182.349 514.896 179.508C508.138 180.252 504.677 180.79 497.505 182.183C501.629 179.466 503.601 178.128 507.393 175.494C502.497 173.136 500.03 172.13 495.01 170.433C502.388 170.364 506.002 170.544 513.09 171.454C516.676 168.875 518.385 167.593 521.681 165.083" fill="white"/>
<path d="M632.787 176.463C633.38 179.649 633.628 181.248 634.014 184.462C640.495 184.875 643.736 185.055 650.245 185.441C643.956 187.041 640.827 187.855 634.511 189.44C634.759 192.668 634.827 194.295 634.814 197.549C630.814 195.274 628.801 194.129 624.705 191.867C618.32 193.44 615.121 194.212 608.653 195.743C612.638 192.778 614.569 191.302 618.306 188.351C614.142 186.075 612.018 184.931 607.674 182.614C614.252 183.124 617.505 183.358 623.987 183.8C627.6 180.862 629.353 179.401 632.787 176.463" fill="white"/>
<path d="M741.864 182.644C743.009 186.091 743.574 187.843 744.594 191.401C752.593 192.022 756.73 192.38 765.267 193.125C757.516 194.669 753.682 195.442 746.139 196.972C747.09 200.627 747.546 202.475 748.36 206.281C742.664 203.371 739.919 201.992 734.541 199.331C727.08 200.861 723.411 201.62 716.102 203.164C720.336 200.02 722.404 198.448 726.39 195.304C721.218 192.766 718.681 191.552 713.73 189.167C721.04 189.649 724.763 189.912 732.472 190.477C736.333 187.333 738.21 185.788 741.864 182.644" fill="white"/>
<path d="M844.19 181.208C844.659 184.545 844.865 186.215 845.238 189.552C849.554 187.663 851.665 186.601 855.802 184.298C851.871 188.586 849.871 190.683 845.775 194.751C846.106 198.13 846.258 199.812 846.533 203.218C843.706 202.432 842.245 201.977 839.322 200.915C835.046 204.804 832.867 206.68 828.316 210.21C830.977 205.77 832.247 203.536 834.716 199.095C831.709 197.826 830.164 197.095 826.979 195.482C831.695 194.489 833.971 193.827 838.453 192.255C840.811 187.814 841.942 185.621 844.19 181.208" fill="white"/>
<path d="M304.461 226.291C304.254 228.304 304.157 229.284 303.95 231.27C313.825 228.608 318.789 227.202 328.595 224.402C318.72 228.388 313.7 230.387 303.606 234.331C303.371 236.303 303.233 237.282 302.943 239.254C296.916 239.764 293.883 239.999 287.87 240.358C277.624 244.233 272.452 246.136 262.109 249.846C268.784 246.233 272.093 244.426 278.63 240.826C272.672 241.061 269.708 241.13 263.902 241.088C273.735 238.951 278.699 237.765 288.642 235.269C295.055 231.67 298.214 229.877 304.461 226.291" fill="white"/>
<path d="M449.972 187.036C450.317 189.38 450.454 190.58 450.633 193.007C458.921 191.808 463.004 191.367 470.961 190.925C463.114 193.035 459.088 194.221 450.814 196.828C450.869 199.324 450.841 200.606 450.648 203.212C445.628 202.095 443.062 201.682 437.821 201.061C429.271 203.93 424.886 205.461 415.922 208.715C421.562 205.323 424.308 203.64 429.617 200.303C424.252 199.958 421.508 199.875 415.95 199.875C424.79 197.751 429.134 196.786 437.657 195.186C442.732 191.89 445.2 190.277 449.972 187.036" fill="white"/>
<path d="M568.449 193.879C568.587 197.189 568.587 198.844 568.408 202.182C575.096 202.926 578.393 203.257 584.943 203.878C578.227 205.298 574.834 206.002 567.952 207.34C567.553 210.705 567.249 212.373 566.463 215.766C562.905 213.228 561.072 211.945 557.224 209.339C550.191 210.594 546.646 211.187 539.434 212.277C544.288 209.505 546.633 208.112 551.129 205.299C547.102 202.665 545.006 201.326 540.62 198.623C547.695 199.644 551.143 200.113 557.969 200.955C562.286 198.128 564.381 196.72 568.449 193.879" fill="white"/>
<path d="M672.673 201.825C672.742 205.176 672.713 206.858 672.534 210.292C679.457 210.816 682.961 211.092 690.201 211.713C682.933 213.271 679.361 214.058 672.149 215.643C671.818 219.133 671.597 220.897 671.018 224.483C666.977 221.849 664.992 220.58 661.048 218.098C653.876 219.698 650.318 220.511 643.146 222.125C648.042 218.994 650.414 217.436 655.006 214.32C651.117 211.906 649.187 210.734 645.312 208.389C651.89 208.83 655.228 209.051 661.971 209.534C666.398 206.431 668.508 204.9 672.673 201.825Z" fill="white"/>
<path d="M797.618 214.733C797.77 218.857 797.784 220.939 797.77 225.132C803.287 225.573 805.934 225.532 811.133 225.091C805.975 228.001 803.314 229.324 797.687 231.627C797.577 235.847 797.48 237.985 797.274 242.26C793.895 239.557 792.198 238.067 788.723 234.854C782.752 236.716 778.366 237.13 768.947 238.137C774.339 234.689 776.96 232.951 782.077 229.476C775.292 225.628 772.05 223.835 765.789 220.401C775.029 221.739 783.373 222.967 789.096 224.001C792.695 220.333 794.391 218.485 797.618 214.733" fill="white"/>
<path d="M200.773 263.195C199.946 265.829 199.56 267.125 198.801 269.704C208.51 268.215 213.461 267.318 223.501 265.305C213.075 268.766 207.862 270.49 197.809 273.924C197.409 276.889 197.325 278.31 197.325 281.068C191.161 280.42 188.155 280.034 182.405 278.999C172.517 282.089 167.662 283.523 158.174 286.046C164.214 282.668 167.317 280.903 173.744 277.193C168.31 275.896 165.787 275.234 160.919 273.607C169.841 273.193 174.475 272.807 183.963 271.704C190.665 268.284 194.029 266.588 200.773 263.195" fill="white"/>
<path d="M358.676 224.854C358.428 226.826 358.277 227.819 357.836 229.846C367.462 227.199 372.22 225.916 381.57 223.599C371.93 227.226 366.966 229.115 357.202 233.294C356.912 235.832 356.829 237.087 356.774 239.583C350.94 239.624 347.976 239.693 342.032 239.845C332.172 244.134 327.234 246.34 317.359 250.739C323.4 246.519 326.503 244.396 332.819 240.121C326.834 240.314 323.924 240.576 317.994 241.141C328.006 238.259 332.985 236.811 342.804 234.053C349.285 230.343 352.457 228.508 358.676 224.854" fill="white"/>
<path d="M495.105 207.009C494.719 210.401 494.456 212.153 493.587 215.642C500.869 217.269 504.428 218.014 511.433 219.365C503.793 220.151 499.862 220.51 491.974 221.144C490.816 224.84 490.278 226.716 489.313 230.563C485.562 227.157 483.728 225.282 479.646 222.082C471.523 222.813 467.454 223.392 459.234 224.868C464.723 221.834 467.523 220.358 473.259 217.517C469.081 214.814 466.944 213.697 462.407 211.78C470.406 211.918 474.322 212.208 481.976 213.353C487.451 210.76 490.058 209.491 495.105 207.009" fill="white"/>
<path d="M602.298 221.832C601.319 225.238 600.739 226.948 599.388 230.382C605.828 230.906 609.055 231.154 615.592 231.678C608.241 233.306 604.504 234.147 597.209 236.216C595.857 240.463 595.251 242.628 594.176 247.027C590.811 243.883 589.169 242.353 585.97 239.346C578.702 241.332 575.103 242.284 567.918 244.118C573.09 240.38 575.723 238.504 581.115 234.767C578.026 231.844 576.55 230.616 573.419 228.093C579.846 228.727 583.059 229.003 589.458 229.569C594.781 226.466 597.347 224.921 602.298 221.832" fill="white"/>
<path d="M713.87 232.481C713.677 236.467 713.525 238.508 713.126 242.673C721.634 244.052 726.033 244.81 735.218 246.52C725.978 247.554 721.358 248.065 712.505 249.733C712.174 254.864 712.091 257.443 712.036 262.628C706.575 258.422 703.995 256.38 699.017 252.381C690.411 254.16 686.26 255.084 678.055 257.001C683.35 252.726 686.054 250.588 691.598 246.341C686.95 242.507 684.841 240.962 680.607 237.984C688.233 238.949 692.149 239.473 700.286 240.673C705.871 237.391 708.588 235.764 713.87 232.481" fill="white"/>
<path d="M827.508 240.476C827.632 244.296 827.701 246.213 827.894 250.061C833.107 248.103 835.659 246.944 840.637 244.434C835.907 249.22 833.438 251.536 828.363 255.756C828.859 259.177 829.163 260.859 829.881 264.224C825.936 263.59 824.005 263.204 820.24 262.128C814.807 266.155 811.966 268.099 805.953 271.754C809.483 267.148 811.208 264.831 814.532 260.211C810.918 258.804 809.235 257.839 805.787 255.715C811.51 254.957 814.283 254.336 819.675 252.777C822.971 247.854 824.515 245.386 827.508 240.476" fill="white"/>
</g>
<defs>
<clipPath id="clip0_311_286">
<rect width="1920" height="1080" fill="white"/>
</clipPath>
</defs>
</svg>
